<?xml version="1.0" encoding="utf-8"?>
<!-- Generator: Adobe Illustrator 20.0.0, SVG Export Plug-In . SVG Version: 6.00 Build 0)  -->
<!DOCTYPE svg PUBLIC "-//W3C//DTD SVG 1.1//EN" "http://www.w3.org/Graphics/SVG/1.1/DTD/svg11.dtd">
<svg version="1.1" id="Calque_1" xmlns="http://www.w3.org/2000/svg" xmlns:xlink="http://www.w3.org/1999/xlink" x="0px" y="0px"
	 viewBox="0 0 615.1 280.6" style="enable-background:new 0 0 615.1 280.6;" xml:space="preserve">
<style type="text/css">
	.st0{fill:#0034D2;}
	.st1{fill:#FFFFFF;}
	.st2{fill:#58585A;}
</style>
<circle class="st0" cx="139.8" cy="138.7" r="117.5"/>
<path class="st1" d="M221.4,85.8L188,203.6h-30l-18.4-66.1l-18.1,66.1H91.8L58.2,85.8h29.2l20.4,74.5L129,85.8h23.3l19.3,74l20.1-74
	H221.4z"/>
<g>
	<path class="st2" d="M344.2,164.5l3.6-16.7h1.3l-3.3,15.6h10.6l-0.2,1.2H344.2z"/>
	<path class="st2" d="M359,159c-0.1,0.4-0.1,0.8-0.1,1.2c0,2.3,1.4,3.5,4.1,3.5c2.4,0,4.2-1,5.3-2.9h1.3c-1.4,2.7-3.7,4.1-6.9,4.1
		c-1.6,0-2.8-0.4-3.6-1.1c-0.9-0.8-1.4-1.9-1.4-3.4c0-0.6,0.1-1.2,0.2-1.9c0.4-1.9,1.3-3.4,2.7-4.6c1.4-1.2,3-1.8,4.9-1.8
		c1.5,0,2.7,0.4,3.7,1.1c1,0.8,1.5,1.9,1.5,3.3c0,0.5-0.1,1-0.2,1.5l-0.2,0.9L359,159z M365.2,153.4c-1.4,0-2.7,0.4-3.7,1.2
		c-1.1,0.8-1.8,1.9-2.2,3.2h9.9c0-0.3,0.1-0.6,0.1-0.9c0-1.2-0.4-2-1.1-2.7C367.4,153.6,366.4,153.4,365.2,153.4z"/>
	<path class="st2" d="M385.9,164.5h-1.1l-3.3-12.1h1.5l2.7,10.4l6.8-10.4h1.4L385.9,164.5z"/>
	<path class="st2" d="M394.2,159c-0.1,0.4-0.1,0.8-0.1,1.2c0,2.3,1.4,3.5,4.1,3.5c2.4,0,4.2-1,5.3-2.9h1.3c-1.4,2.7-3.7,4.1-6.9,4.1
		c-1.6,0-2.8-0.4-3.6-1.1c-0.9-0.8-1.4-1.9-1.4-3.4c0-0.6,0.1-1.2,0.2-1.9c0.4-1.9,1.3-3.4,2.7-4.6c1.4-1.2,3-1.8,4.9-1.8
		c1.5,0,2.7,0.4,3.7,1.1c1,0.8,1.5,1.9,1.5,3.3c0,0.5-0.1,1-0.2,1.5l-0.2,0.9L394.2,159z M400.4,153.4c-1.4,0-2.7,0.4-3.7,1.2
		c-1.1,0.8-1.8,1.9-2.2,3.2h9.9c0-0.3,0.1-0.6,0.1-0.9c0-1.2-0.4-2-1.1-2.7C402.6,153.6,401.6,153.4,400.4,153.4z"/>
	<path class="st2" d="M415.7,164.5l1.7-7.9c0.1-0.3,0.1-0.6,0.1-0.9c0-1.6-1.1-2.4-3.2-2.4c-1.4,0-2.5,0.4-3.5,1.2
		c-1,0.8-1.6,1.9-1.9,3.2l-1.4,6.8h-1.3l2.6-12.1h1.3l-0.3,1.7c1.2-1.3,2.8-1.9,4.8-1.9c1.2,0,2.2,0.2,2.9,0.7
		c0.9,0.6,1.4,1.4,1.4,2.5c0,0.3,0,0.7-0.1,1l-1.7,8.1H415.7z"/>
	<path class="st2" d="M424.7,154.2l-2.2,10.4h-1.2l2.1-10.4H421l0.2-1.2h2.4l0.8-3.6h1.3L425,153h2.5l-0.2,1.2H424.7z"/>
	<path class="st2" d="M437.8,159c-0.1,0.4-0.1,0.8-0.1,1.2c0,2.3,1.4,3.5,4.1,3.5c2.4,0,4.2-1,5.3-2.9h1.3c-1.4,2.7-3.7,4.1-6.9,4.1
		c-1.6,0-2.8-0.4-3.6-1.1c-0.9-0.8-1.4-1.9-1.4-3.4c0-0.6,0.1-1.2,0.2-1.9c0.4-1.9,1.3-3.4,2.7-4.6c1.4-1.2,3-1.8,4.9-1.8
		c1.5,0,2.7,0.4,3.7,1.1c1,0.8,1.5,1.9,1.5,3.3c0,0.5-0.1,1-0.2,1.5l-0.2,0.9L437.8,159z M444,153.4c-1.4,0-2.7,0.4-3.7,1.2
		c-1.1,0.8-1.8,1.9-2.2,3.2h9.9c0-0.3,0.1-0.6,0.1-0.9c0-1.2-0.4-2-1.1-2.7C446.2,153.6,445.3,153.4,444,153.4z"/>
	<path class="st2" d="M459.3,164.5l1.7-7.9c0.1-0.3,0.1-0.6,0.1-0.9c0-1.6-1.1-2.4-3.2-2.4c-1.4,0-2.5,0.4-3.5,1.2
		c-1,0.8-1.6,1.9-1.9,3.2l-1.4,6.8h-1.3l2.6-12.1h1.3l-0.3,1.7c1.2-1.3,2.8-1.9,4.8-1.9c1.2,0,2.2,0.2,2.9,0.7
		c0.9,0.6,1.4,1.4,1.4,2.5c0,0.3,0,0.7-0.1,1l-1.7,8.1H459.3z"/>
	<path class="st2" d="M477.7,154.2l-2.2,10.4h-1.2l2.1-10.4H474l0.2-1.2h2.4l0.8-3.6h1.3L478,153h2.5l-0.2,1.2H477.7z"/>
	<path class="st2" d="M481.5,159c-0.1,0.4-0.1,0.8-0.1,1.2c0,2.3,1.4,3.5,4.1,3.5c2.4,0,4.2-1,5.3-2.9h1.3c-1.4,2.7-3.7,4.1-6.9,4.1
		c-1.6,0-2.8-0.4-3.6-1.1c-0.9-0.8-1.4-1.9-1.4-3.4c0-0.6,0.1-1.2,0.2-1.9c0.4-1.9,1.3-3.4,2.7-4.6c1.4-1.2,3-1.8,4.9-1.8
		c1.5,0,2.7,0.4,3.7,1.1c1,0.8,1.5,1.9,1.5,3.3c0,0.5-0.1,1-0.2,1.5l-0.2,0.9L481.5,159z M487.7,153.4c-1.4,0-2.7,0.4-3.7,1.2
		c-1.1,0.8-1.8,1.9-2.2,3.2h9.9c0-0.3,0.1-0.6,0.1-0.9c0-1.2-0.4-2-1.1-2.7C489.9,153.6,488.9,153.4,487.7,153.4z"/>
	<path class="st2" d="M510.2,164.5l1.7-7.9c0.1-0.4,0.1-0.8,0.1-1.1c0-1.5-0.9-2.2-2.6-2.2c-1.2,0-2.2,0.3-3,1
		c-0.8,0.7-1.4,1.5-1.6,2.7l-1.6,7.6h-1.3l1.7-7.9c0.1-0.4,0.1-0.8,0.1-1.1c0-1.5-0.9-2.2-2.7-2.2c-1.2,0-2.3,0.4-3.2,1.3
		c-0.8,0.8-1.4,1.8-1.6,3.1l-1.4,6.8h-1.3l2.6-12.1h1.3l-0.3,1.6c1.2-1.2,2.7-1.9,4.5-1.9c1.9,0,3,0.7,3.4,2.1
		c1.1-1.4,2.7-2.1,4.7-2.1c2.5,0,3.8,1,3.8,3c0,0.4,0,0.8-0.1,1.3l-1.7,8.1H510.2z"/>
	<path class="st2" d="M520.3,165c-2.2,0-3.7-0.8-4.4-2.4l-1.3,6.1h-1.3l3.5-16.2h1.3l-0.4,2.1c1.4-1.6,3.2-2.4,5.4-2.4
		c1.5,0,2.8,0.4,3.6,1.1c0.9,0.8,1.4,2,1.4,3.4c0,0.6-0.1,1.2-0.2,1.8c-0.4,2-1.3,3.5-2.6,4.6C523.9,164.4,522.3,165,520.3,165z
		 M522.9,153.4c-1.5,0-2.9,0.5-4,1.4c-1.1,1-1.8,2.2-2.1,3.7c-0.1,0.6-0.2,1.1-0.2,1.6c0,2.5,1.4,3.7,4.1,3.7c1.5,0,2.9-0.5,3.9-1.5
		c1-0.9,1.6-2.2,2-3.8c0.1-0.5,0.2-1,0.2-1.5c0-1.2-0.3-2.1-1-2.8C525,153.7,524.1,153.4,522.9,153.4z"/>
	<path class="st2" d="M533.8,164.9c-3.1,0-4.6-1.2-4.6-3.5c0-0.4,0.1-0.9,0.2-1.4h1.3c-0.1,0.4-0.1,0.8-0.1,1.2
		c0,1.7,1.2,2.5,3.6,2.5c2.4,0,3.8-0.8,4.1-2.3c0-0.1,0-0.2,0-0.3c0-0.8-0.7-1.4-2.1-1.7c-0.1,0-0.9-0.2-2.4-0.4
		c-2.1-0.3-3.1-1.2-3.1-2.5c0-0.2,0-0.4,0.1-0.7c0.2-1.1,0.9-2,2-2.7c1-0.6,2.1-0.9,3.3-0.9c3,0,4.5,1.1,4.5,3.2
		c0,0.4,0,0.8-0.1,1.2h-1.3c0.1-0.4,0.1-0.7,0.1-1c0-1.5-1.1-2.2-3.3-2.2c-0.9,0-1.7,0.2-2.4,0.5c-0.8,0.4-1.3,1-1.5,1.8
		c0,0.1,0,0.2,0,0.3c0,0.8,0.7,1.3,2.1,1.6c0.4,0.1,1.3,0.2,2.5,0.5c2,0.4,3,1.2,3,2.6c0,0.2,0,0.5-0.1,0.7c-0.3,1.2-1,2.2-2.1,2.8
		C536.4,164.6,535.2,164.9,533.8,164.9z"/>
	<path class="st2" d="M553.1,159.7l-1,4.8h-1.3l2.6-12.1h1.3l-0.4,2c0.3-0.4,0.7-0.7,1.2-1c1.3-0.9,2.8-1.3,4.6-1.3l-0.2,1.2
		C556.1,153.4,553.9,155.5,553.1,159.7z"/>
	<path class="st2" d="M560.9,158.9c-0.1,0.4-0.1,0.9-0.1,1.2c0,2.4,1.4,3.5,4.1,3.5c2.4,0,4.2-1,5.3-3h1.3c-1.4,2.8-3.7,4.1-6.9,4.1
		c-1.6,0-2.8-0.4-3.6-1.1c-0.9-0.8-1.4-1.9-1.4-3.4c0-0.6,0.1-1.2,0.2-1.9c0.4-1.9,1.3-3.4,2.7-4.6c1.4-1.2,3-1.8,5-1.8
		c1.5,0,2.7,0.4,3.6,1.1c1,0.8,1.5,1.9,1.5,3.4c0,0.5-0.1,1-0.2,1.5l-0.2,0.9L560.9,158.9z M567.1,153.2c-1.4,0-2.7,0.4-3.7,1.2
		c-1.1,0.8-1.8,1.9-2.2,3.3h9.9c0-0.3,0.1-0.6,0.1-0.9c0-1.2-0.4-2.1-1.1-2.7C569.3,153.5,568.3,153.2,567.1,153.2z M569.9,148.9
		l-3.5,2.9c-0.2,0.1-0.4,0.2-0.5,0.2c-0.4,0-0.6-0.2-0.5-0.6c0-0.1,0.1-0.3,0.3-0.4l3.4-2.9c0.3-0.3,0.6-0.3,0.9-0.1
		c0.1,0.1,0.2,0.3,0.1,0.4C570.1,148.6,570,148.7,569.9,148.9z"/>
	<path class="st2" d="M574.4,159c-0.1,0.4-0.1,0.8-0.1,1.2c0,2.3,1.4,3.5,4.1,3.5c2.4,0,4.2-1,5.3-2.9h1.3c-1.4,2.7-3.7,4.1-6.9,4.1
		c-1.6,0-2.8-0.4-3.6-1.1c-0.9-0.8-1.4-1.9-1.4-3.4c0-0.6,0.1-1.2,0.2-1.9c0.4-1.9,1.3-3.4,2.7-4.6c1.4-1.2,3-1.8,4.9-1.8
		c1.5,0,2.7,0.4,3.7,1.1c1,0.8,1.5,1.9,1.5,3.3c0,0.5-0.1,1-0.2,1.5l-0.2,0.9L574.4,159z M580.7,153.4c-1.4,0-2.7,0.4-3.7,1.2
		c-1.1,0.8-1.8,1.9-2.2,3.2h9.9c0-0.3,0.1-0.6,0.1-0.9c0-1.2-0.4-2-1.1-2.7C582.8,153.6,581.9,153.4,580.7,153.4z"/>
	<path class="st2" d="M586.4,164.5l3.6-16.7h1.3l-3.6,16.7H586.4z"/>
</g>
<path class="st1" d="M204,175.2c-0.7,0-1.3-0.4-1.7-1.2v-3.8c0.5-0.8,1.1-1.2,1.7-1.2c0.5,0,1.2,0.3,2,1v4.1
	C205.3,174.8,204.6,175.2,204,175.2z M202.3,203.6v-25.1h3.7v25.1H202.3z"/>
<path class="st1" d="M237.7,203.6v-15.9c0-2.2-1.1-3.8-3.4-4.9c-1.8-0.9-4.1-1.3-7-1.3c-3.4,0-6.2,0.7-8.3,2
	c-2.5,1.5-3.8,3.7-3.8,6.4v13.7h-3.7V179h3.7v3.2c2.6-2.5,6.6-3.7,12.1-3.7c3.6,0,6.6,0.6,9,1.7c3.4,1.5,5.1,3.9,5.1,7.1v10.4
	C239.6,201.2,237.7,203.6,237.7,203.6z"/>
<path class="st0" d="M275.7,203.6v-4.3c-3.1,3.2-7.6,4.8-13.7,4.8c-4.5,0-8.3-1-11.4-3c-3.6-2.4-5.4-5.7-5.4-10.1
	c0-4.4,1.8-7.8,5.4-10.1c3.1-2,7-3.1,11.7-3.1c6,0,10.5,1.5,13.4,4.6v-13h3.7v34.1H275.7z M262,180.9c-3.7,0-6.8,0.8-9.1,2.5
	c-2.6,1.8-4,4.4-4,7.6c0,3.3,1.3,5.8,4,7.6c2.4,1.6,5.4,2.4,9.1,2.4c3.7,0,6.9-0.8,9.4-2.5c2.8-1.8,4.3-4.3,4.3-7.5
	c0-3.6-1.5-6.2-4.4-8C268.9,181.6,265.8,180.9,262,180.9z"/>
<path class="st0" d="M317.1,202.2c-3.4,1.2-7.4,1.8-12.1,1.8c-5.4,0-9.8-0.6-13.2-1.9c-5.2-1.9-7.8-5.1-7.8-9.7v-1.6h3.7v1.4
	c0,5.8,5.8,8.6,17.4,8.6c3.7,0,6.9-0.4,9.5-1.1c3.8-1.1,5.7-2.8,5.7-5.2c0-1.6-0.7-2.8-2-3.7c-1-0.6-2.7-1.2-5.1-1.7
	c-1.3-0.3-4.5-0.8-9.7-1.6c-5.8-0.9-9.8-1.7-11.8-2.5c-4.2-1.5-6.3-3.9-6.3-7.1c0-5.9,6.1-8.9,18.3-8.9c12.7,0,19.2,3.8,19.4,11.5
	h-3.7c-0.3-3.7-2.1-6.1-5.5-7.2c-2.3-0.8-5.7-1.2-10.2-1.2c-9.7,0-14.6,1.9-14.6,5.8c0,1.8,1.3,3.3,3.8,4.2c1.8,0.7,5,1.3,9.4,1.9
	c8.2,1.1,13.7,2.2,16.4,3.4c3.5,1.5,5.2,3.9,5.2,7.1C324,198.1,321.7,200.5,317.1,202.2z"/>
<path class="st0" d="M357.8,201.7c-3,2-6.9,3-11.7,3c-5.9,0-10.4-1.5-13.4-4.6v12H329v-33h3.7v4c2.9-3,7.4-4.6,13.3-4.6
	c4.8,0,8.7,1,11.7,2.9c3.6,2.3,5.4,5.7,5.4,10.1C363,195.9,361.3,199.3,357.8,201.7z M346.4,181.5c-3.8,0-7,0.8-9.5,2.4
	c-2.8,1.8-4.2,4.3-4.2,7.4c0,3.6,1.3,6.2,4,7.9c2.3,1.5,5.6,2.3,9.7,2.3c3.8,0,6.9-0.8,9.2-2.4c2.6-1.8,3.9-4.3,3.9-7.6
	c0-3.4-1.4-6-4.1-7.7C353,182.2,350,181.5,346.4,181.5z"/>
<path class="st0" d="M394.8,201.3c-3.2,1.9-7.2,2.8-11.9,2.8c-4.7,0-8.7-1-11.9-2.9c-3.8-2.3-5.7-5.6-5.7-10c0-4.4,2-7.7,5.9-10
	c3.2-1.9,7.2-2.9,11.9-2.9c4.8,0,8.7,1,11.9,2.9c3.9,2.3,5.8,5.7,5.8,10C400.7,195.6,398.7,199,394.8,201.3z M392.7,183.8
	c-2.5-1.5-5.8-2.3-9.8-2.3c-4,0-7.2,0.8-9.8,2.4c-2.8,1.7-4.2,4.2-4.2,7.5c0,3.2,1.4,5.7,4.3,7.4c2.6,1.6,5.8,2.4,9.8,2.4
	c3.9,0,7.1-0.8,9.7-2.4c2.9-1.7,4.3-4.2,4.3-7.4C397,188,395.6,185.5,392.7,183.8z"/>
<path class="st0" d="M412.2,183v20.6h-3.5l-0.2-20.6h-6.7v-3.1h6.7v-7.2h3.7v7.2h6.9v3.1H412.2z"/>
<path class="st0" d="M444.5,203.1c-2.2,0.7-5,1.1-8.3,1.1c-10.2,0-15.2-3.5-15.2-10.5h3.8c0,2.6,0.9,4.5,2.7,5.6
	c1.8,1.2,4.7,1.8,8.8,1.8c6.6,0,9.9-1.4,9.9-4.2c0-1.7-2.2-3-6.6-3.7c-2.2-0.2-4.4-0.5-6.5-0.7c-3.2-0.4-5.5-1-7.2-1.9
	c-2.2-1.1-3.4-2.8-3.4-4.9c0-2.6,1.6-4.6,4.8-5.9c2.3-0.9,4.9-1.4,7.8-1.4c9.8,0,14.7,3.1,14.7,9.4h-3.9c0-2.2-0.8-3.8-2.4-4.7
	c-1.7-1-4.4-1.6-8.1-1.6c-2.2,0-4.2,0.3-5.9,0.9c-2.2,0.8-3.3,1.9-3.3,3.3c0,1.7,2.1,2.8,6.4,3.4l7.2,0.9c6.7,0.8,10.1,3.1,10.1,6.9
	C449.9,199.8,448.1,201.9,444.5,203.1z"/>
<path class="st0" d="M459.4,203.7c-1.2,0-1.9-0.4-1.9-1.2v-2.1c0-0.8,0.6-1.2,1.9-1.2c1.2,0,1.8,0.4,1.8,1.2v2.1
	C461.2,203.3,460.6,203.7,459.4,203.7z"/>
<path class="st0" d="M494.1,202.6c-2.7,1-5.7,1.6-9.1,1.6c-4.7,0-8.6-0.9-11.7-2.7c-3.8-2.2-5.7-5.4-5.7-9.7c0-4.6,1.9-8,5.8-10.4
	c3.3-1.9,7.4-2.9,12.4-2.9c3.1,0,5.9,0.5,8.3,1.4c3.1,1.2,5.3,3.5,6.5,6.6l-3.5,1.2c-0.8-2.2-2.1-3.8-3.9-4.8s-4.4-1.5-7.6-1.5
	c-4.1,0-7.4,0.8-10,2.4c-2.9,1.8-4.4,4.4-4.4,7.9c0,3.2,1.4,5.6,4.2,7.2c2.4,1.4,5.6,2.2,9.6,2.2c2.8,0,5.3-0.4,7.5-1.3
	c2.6-1,4.2-2.8,5-5.5l3.6,1.1C499.8,198.8,497.5,201.2,494.1,202.6z"/>
<path class="st0" d="M532.4,201.3c-3.2,1.9-7.2,2.8-11.9,2.8c-4.7,0-8.7-1-11.9-2.9c-3.8-2.3-5.7-5.6-5.7-10c0-4.4,2-7.7,5.9-10
	c3.2-1.9,7.2-2.9,11.9-2.9c4.8,0,8.7,1,11.9,2.9c3.9,2.3,5.8,5.7,5.8,10C538.3,195.6,536.4,199,532.4,201.3z M530.4,183.8
	c-2.5-1.5-5.8-2.3-9.8-2.3c-4,0-7.2,0.8-9.8,2.4c-2.8,1.7-4.2,4.2-4.2,7.5c0,3.2,1.4,5.7,4.3,7.4c2.6,1.6,5.8,2.4,9.8,2.4
	c3.9,0,7.1-0.8,9.7-2.4c2.9-1.7,4.3-4.2,4.3-7.4C534.6,188,533.2,185.5,530.4,183.8z"/>
<path class="st0" d="M588,203.6v-15.9c0-4.1-2.9-6.2-8.7-6.2c-2.9,0-5.3,0.5-7.2,1.6c-2.2,1.2-3.4,3-3.4,5.3v15.3H565v-15.9
	c0-4.1-3-6.2-8.9-6.2c-3,0-5.5,0.7-7.4,2.2c-2,1.5-3,3.6-3,6.2v13.7h-3.7V179h3.7v3c2.5-2.4,6.2-3.6,11.1-3.6
	c5.1,0,8.6,1.4,10.7,4.3c2.2-2.8,6.1-4.3,11.7-4.3c8.4,0,12.6,2.9,12.6,8.7v16.4H588z"/>
</svg>
